<svg id="Layer_1" data-name="Layer 1" xmlns="http://www.w3.org/2000/svg" xmlns:xlink="http://www.w3.org/1999/xlink" viewBox="0 0 1748.5 1498.72"><defs><style>.cls-1{fill:#010101;}.cls-2{mask:url(#mask);}.cls-3{fill:#1d1d1b;}.cls-4{filter:url(#luminosity-noclip);}</style><filter id="luminosity-noclip" x="0" y="0" width="1748.5" height="1498.72" filterUnits="userSpaceOnUse" color-interpolation-filters="sRGB"><feFlood flood-color="#fff" result="bg"/><feBlend in="SourceGraphic" in2="bg"/></filter><mask id="mask" x="0" y="0" width="1748.5" height="1498.72" maskUnits="userSpaceOnUse"><g class="cls-4"><path class="cls-1" d="M842.72,1434.59q0,26.9,18.62,45.51t46.55,18.62h646.5q25.86,0,45.51-18.62t18.62-45.51V981.52q0-26.89-18.62-45.51t-45.51-18.62V788.09q0-66.21-25.86-125.16t-69.31-103.44q-43.44-44.49-103.44-69.31a338.47,338.47,0,0,0-125.16-25.86q-87.93,0-162.4,43.45T951.33,625.69q-42.41,74.47-43.44,162.4v129.3q-26.89,0-46.55,18.62t-18.62,45.51v453.07ZM972,1369.42V1046.69h517.2v322.73Zm65.17-452V788.09q0-80.69,55.86-137.58t137.57-56.89q81.72,0,137.58,56.89t56.89,137.58v129.3Z"/><path class="cls-1" d="M1495.71,1095.14l4.53-34.23H1358.49q-6.81,60.48-11,121.22-2.1,30.6-3.52,61.25-.71,15.33-1.24,30.65c-.53,14.89-1.09,29.1,2.61,43.86l3.57,8.47q2.05,4.89,4.14,9.79a72.62,72.62,0,0,0,12.37,16.17c5.29,5.39,11.59,9.73,17.79,14,4.41,3,9.1,5.73,13.63,8.56l30.1,18.8,16.93,7.14a53.66,53.66,0,0,0,28.27,1.27,35.24,35.24,0,0,0,17.88-4.84,53.13,53.13,0,0,0,22.81-14.65,84.45,84.45,0,0,0,18.23-31.28,53.71,53.71,0,0,0,1.26-28.26,52.68,52.68,0,0,0-8.41-26.35q-8.31-17.49-15.88-35.32l7.14,16.93a879.63,879.63,0,0,1-59.9-214.34,79.27,79.27,0,0,0-32.57-42.36,52.75,52.75,0,0,0-26.35-8.41,53.61,53.61,0,0,0-28.26,1.27c-17.15,5.55-33.7,16.17-42.36,32.57l-7.14,16.93a71.28,71.28,0,0,0,0,37.68,876.77,876.77,0,0,0,53.23,198.14c9.23,23.09,19,46,29.7,68.45l97-97-23.41-14.62c-7.37-4.59-15.28-8.81-22.17-14.09l14.35,11.08a12.82,12.82,0,0,1-2.09-2.14l11.08,14.34a9.07,9.07,0,0,1-1.37-2.59l7.15,16.93a13,13,0,0,1-.59-2.82l2.54,18.84c-.6-9.29.36-18.83.71-28.13q.55-14.83,1.27-29.66,1.43-29.65,3.49-59.27,4.13-59.24,10.79-118.26a78.79,78.79,0,0,0-20.76-50.11A78.79,78.79,0,0,0,1429.37,990c-18.33.82-37.34,6.84-50.12,20.76l-11.08,14.34a70.58,70.58,0,0,0-9.68,35.77l-4.53,34.23a78.93,78.93,0,0,0,20.76,50.12,78.93,78.93,0,0,0,50.12,20.76c18.33-.82,37.34-6.84,50.11-20.76l11.09-14.34a70.58,70.58,0,0,0,9.67-35.78Z"/><path class="cls-1" d="M1298.87,1115.62l-78.06,28.14-39,14.07c-10.83,3.9-21.81,7.7-32.16,12.76a37.64,37.64,0,0,0-3.77,2.13,126.37,126.37,0,0,0-15.45,12c-9.18,8.53-18.22,23.7-21.33,35.92-4,15.78-4.62,33.19.38,48.87a138,138,0,0,0,9.57,22.55,60.76,60.76,0,0,0,5,7.61c6.26,8.43,12.68,17.34,20.29,24.76,8,7.77,17.14,14.61,26.26,20.91A87.23,87.23,0,0,0,1184,1353c10.08,4.62,20.5,9.54,31.37,12.21,23.14,5.69,42.72,5.24,65.85,1.31a80.46,80.46,0,0,0,15.46-4.24c10.28-4,21.71-8.24,31-14.67,18.64-12.89,35.76-28.48,46.08-49.11a52.75,52.75,0,0,0,8.41-26.35,53.72,53.72,0,0,0-1.27-28.26l-7.14-16.93a53.62,53.62,0,0,0-18.26-19.89,35.34,35.34,0,0,0-15.64-9.11,53.29,53.29,0,0,0-27.3-6.1l-18.84,2.53a70.8,70.8,0,0,0-31.28,18.22,221.65,221.65,0,0,1-39.19,38.9l14.35-11.08a235.69,235.69,0,0,1-50.41,29.34l16.93-7.14a234.49,234.49,0,0,1-59.2,16.2l18.84-2.54a221.89,221.89,0,0,1-47.57,1V1419q105.19-4,210.16-12.51,29.7-2.4,59.37-5.17a68.44,68.44,0,0,0,64.77-43.57,53.45,53.45,0,0,0,6.1-27.31c-.82-18.33-6.84-37.34-20.76-50.11-13.11-12-31.65-22.48-50.11-20.76q-104.84,9.75-210,15.06-29.75,1.49-59.53,2.63c-18.6.71-36.77,7.41-50.11,20.75a78.79,78.79,0,0,0-20.76,50.12c.82,18.33,6.84,37.34,20.76,50.12l14.34,11.08a70.57,70.57,0,0,0,35.77,9.67,217.21,217.21,0,0,0,44.52-.66c20.39-2.41,40.53-5.24,60.15-11.4a332.75,332.75,0,0,0,56.62-23.8c17.87-9.54,33.85-21.68,49.63-34.33a218.46,218.46,0,0,0,35.56-36l-111.31-85.89a65.78,65.78,0,0,1-6,9.84l11.08-14.35a68.72,68.72,0,0,1-12.25,12.15l14.34-11.08a76,76,0,0,1-15.08,8.67l16.93-7.15a77.54,77.54,0,0,1-18.25,5l18.84-2.53a75.69,75.69,0,0,1-19.2-.07l18.84,2.53a84.3,84.3,0,0,1-19.14-5.29l16.93,7.15a93.67,93.67,0,0,1-19.9-11.6l14.34,11.08a99.3,99.3,0,0,1-16.43-16.29l11.08,14.35a60.68,60.68,0,0,1-7.33-11.6l7.15,16.93a32.54,32.54,0,0,1-2.08-7.17l2.54,18.84a23.69,23.69,0,0,1,0-4.21l-2.53,18.84a12.65,12.65,0,0,1,.64-2.65l-7.15,16.93a16,16,0,0,1,2.11-3.62L1229.63,1286a12.12,12.12,0,0,1,2.11-1.94l-14.34,11.08a29.74,29.74,0,0,1,5.11-2.71l-16.93,7.15c43.28-16.67,87.34-31.53,131-47.26a79.3,79.3,0,0,0,42.36-32.57,52.78,52.78,0,0,0,8.41-26.35,53.71,53.71,0,0,0-1.26-28.26c-5.55-17.15-16.18-33.7-32.57-42.36-16.13-8.52-36.81-13.57-54.62-7.14Z"/><path class="cls-1" d="M1271.52,690.92a577.49,577.49,0,0,1,16.77,80.32l-2.53-18.84a574.19,574.19,0,0,1,5,73.31c0,12.2-.55,24.39-.75,36.59a286.09,286.09,0,0,0,4.78,54.44l7.14,16.93a53.51,53.51,0,0,0,18.26,19.88,35.48,35.48,0,0,0,15.63,9.12,53.45,53.45,0,0,0,27.31,6.1,83.9,83.9,0,0,0,35.77-9.68,79.2,79.2,0,0,0,32.57-42.35c9.29-22.62,13.25-48.06,13.81-72.37a210.81,210.81,0,0,0-11.66-73.67c-6.82-19.39-14.07-38.39-19.32-58.31s-9.36-39.89-13.5-59.95a53.23,53.23,0,0,0-12.69-24.1,53.43,53.43,0,0,0-19.88-18.26,52.78,52.78,0,0,0-26.35-8.41,53.61,53.61,0,0,0-28.26,1.27c-17.15,5.55-33.7,16.17-42.36,32.57l-7.14,16.93a71.28,71.28,0,0,0,0,37.68c5.29,25.69,10.6,51.43,18.17,76.57,7.4,24.59,19,47.88,22.52,73.51l-2.53-18.84a156.05,156.05,0,0,1,0,38.93l2.53-18.84a153.35,153.35,0,0,1-10.06,37.6h136.68c-.33-1.9-.63-3.8-.91-5.72l2.54,18.85c-2.37-18.6-1-37.3-.66-56s-.35-37.57-1.93-56.28c-3.61-42.73-10.57-85.41-22.3-126.69-4.91-17.24-17.06-33.28-32.58-42.36a52.72,52.72,0,0,0-26.35-8.41,53.61,53.61,0,0,0-28.26,1.27c-17.15,5.55-33.69,16.18-42.35,32.57-8.88,16.8-12.46,35.94-7.15,54.61Z"/><path class="cls-1" d="M897.2,1402.67q0,26.89,18.62,45.52t46.55,18.61h646.5q25.86,0,45.52-18.61t18.61-45.52V949.6q0-26.9-18.61-45.51t-45.52-18.62V756.17q0-66.2-25.86-125.16a344.72,344.72,0,0,0-69.3-103.44q-43.45-44.48-103.44-69.31A338.56,338.56,0,0,0,1285.1,432.4q-87.91,0-162.4,43.45T1005.82,593.77q-42.42,74.47-43.45,162.4v129.3q-26.89,0-46.55,18.62T897.2,949.6v453.07Zm129.3-65.17V1014.77h517.2V1337.5Zm65.17-452V756.17q0-80.68,55.86-137.57t137.57-56.9q81.72,0,137.58,56.9t56.89,137.57v129.3Z"/></g></mask></defs><g class="cls-2"><path class="cls-3" d="M486.33,1340.47q-149.58,0-223.29-71.9t-73.71-228V857q0-74.41-33.24-112T45.53,707.45H0V570.88H45.53q39,0,66.48-8.31t44.8-25.66q17.34-17.34,24.93-44.44t7.59-64.67V300.61q0-74.42,17-130.79t53.11-93.94q36.13-37.57,92.14-56.73T486.33,0H547V135.85H501.5q-34.68,0-62.5,8.31a120.11,120.11,0,0,0-48.06,27.1q-20.24,18.8-31.07,49.5T349,297V423.46q0,54.19-9,92.5t-27.82,63.95a127.48,127.48,0,0,1-47.7,39.74q-28.91,14.1-67.93,19.88,77.32,8.67,114.9,60.34T349,858.48V1042q0,47,10.84,78t31.07,49.85A116.54,116.54,0,0,0,439,1196.67q27.81,7.95,62.5,7.95H547v135.85Z"/><path class="cls-3" d="M1261.45,0q150.29,0,224,71.9t73.71,228.71V422q0,74.43,32.88,111.64t110.2,37.22h46.25V707.45h-46.25q-39,0-66.48,8.31t-44.44,25.66q-17,17.34-24.57,44.44t-7.59,64.67v190q0,74.43-17,130.44t-53.11,93.58q-36.15,37.56-92.5,56.73t-135.13,19.14h-60.7V1204.62H1247q34.68,0,62.5-7.95a114.8,114.8,0,0,0,48.06-27.1q20.22-19.15,31.07-49.86t10.84-76.23V855.59q0-54.2,9-92.86T1436,698.42A121.51,121.51,0,0,1,1483.3,659q28.89-13.72,67.92-19.51-77.33-9.39-114.54-61.07t-37.21-158.61V299.17q0-47-10.84-78.41t-31.07-50.22a116.78,116.78,0,0,0-48.06-26.74q-27.82-7.94-62.5-8h-46.25V0Z"/></g><path class="cls-1" d="M851.63,1434.41q0,27,18.67,45.64T917,1498.72h648.29q25.93,0,45.64-18.67t18.67-45.64V980.09q0-27-18.67-45.64t-45.64-18.67V786.12q0-66.39-25.93-125.51t-69.5-103.73q-43.56-44.6-103.72-69.49a339.38,339.38,0,0,0-125.51-25.93q-88.17,0-162.85,43.56T960.54,623.27Q918,698,917,786.12V915.78q-27,0-46.68,18.67t-18.67,45.64v454.32Zm129.66-65.35V1045.44h518.63v323.62Zm65.35-453.28V786.12q0-80.91,56-138t138-57q81.95,0,138,57t57,138V915.78Z"/></svg>